<?xml version="1.0" encoding="UTF-8"?>
<!DOCTYPE svg PUBLIC "-//W3C//DTD SVG 1.1//EN" "http://www.w3.org/Graphics/SVG/1.1/DTD/svg11.dtd">
<!-- Creator: CorelDRAW X6 -->
<svg xmlns="http://www.w3.org/2000/svg" xml:space="preserve" width="185.605mm" height="18.7854mm" version="1.1" style="shape-rendering:geometricPrecision; text-rendering:geometricPrecision; image-rendering:optimizeQuality; fill-rule:evenodd; clip-rule:evenodd"
viewBox="0 0 19525 1976"
 xmlns:xlink="http://www.w3.org/1999/xlink">
 <defs>
  <style type="text/css">
   <![CDATA[
    .fil0 {fill:none}
    .fil1 {fill:#2B2A29;fill-rule:nonzero}
    .fil2 {fill:#1B4E9B;fill-rule:nonzero}
   ]]>
  </style>
 </defs>
 <g id="Ebene_x0020_1">
  <metadata id="CorelCorpID_0Corel-Layer"/>
  <rect class="fil0" width="19525" height="1976"/>
  <path class="fil1" d="M7674 1604l0 -938 -345 0 0 -335 1076 0 0 335 -345 0 0 938 -385 0zm-1575 0l0 -1273 574 0c180,0 308,29 385,86 77,57 115,150 115,281 0,78 -16,142 -47,194 -31,51 -80,92 -146,122 67,15 116,45 146,89 30,44 53,109 58,194l19 309 -373 0 -15 -260c-4,-65 -21,-112 -46,-139 -24,-27 -66,-40 -127,-40l-163 0 0 439 -380 0zm380 -726l175 0c61,0 104,-9 127,-27 23,-17 35,-48 35,-92 0,-45 -12,-76 -35,-94 -23,-18 -69,-27 -137,-27l-165 0 0 239zm-1615 -243l0 -304 1042 0 0 305 -1042 0zm0 968l0 -798 933 0 0 292 -541 0 0 196 650 0 0 310 -1042 0zm-1356 0l0 -1273 385 0 0 432 359 0 0 -432 385 0 0 1273 -385 0 0 -494 -359 0 0 494 -385 0zm-527 -502l365 0c-11,159 -66,282 -167,370 -100,88 -237,132 -408,132 -192,0 -344,-57 -454,-170 -110,-113 -165,-269 -165,-466 0,-197 54,-352 164,-466 109,-114 258,-171 446,-171 174,0 310,42 410,127 99,85 155,205 167,363l-369 0c-6,-62 -25,-76 -59,-107 -34,-31 -82,-47 -144,-47 -76,0 -132,28 -170,83 -38,56 -57,107 -57,219 0,110 20,160 60,217 40,56 99,85 177,85 60,0 107,-17 142,-52 35,-34 56,-51 61,-115zm-1012 -771l0 1273 -392 0 0 -1273 392 0zm-1631 1273l0 -798 933 0 0 292 -541 0 0 196 650 0 0 310 -1042 0z"/>
  <polygon class="fil2" points="338,636 338,331 1381,331 1381,636 "/>
  <path class="fil2" d="M8789 1604l0 -1273 191 0 0 522 727 0 0 -522 191 0 0 1273 -191 0 0 -597 -727 0 0 597 -191 0zm9353 0l0 -1273 189 0 0 614 674 -614 253 0 -572 510 588 763 -236 0 -490 -639 -217 193 0 446 -189 0zm-458 0l0 -1273 191 0 0 1273 -191 0zm-1116 0l0 -1273 193 0 0 1112 697 0 0 161 -890 0zm-1333 -514l1 -759 191 0 -1 760c0,119 29,206 87,263 58,56 148,85 269,85 120,0 210,-29 269,-86 59,-58 89,-145 89,-261l1 -760 191 0 -1 759c0,169 -48,297 -145,384 -97,87 -239,130 -427,130 -175,0 -306,-43 -394,-129 -87,-86 -131,-214 -131,-386zm-1335 514l520 -1273 210 0 522 1273 -206 0 -148 -381 -551 0 -149 381 -197 0zm405 -529l437 0 -217 -561 -220 561zm-1581 -744l543 0c88,0 153,4 194,10 42,7 79,19 112,35 59,30 104,71 135,123 31,53 46,114 46,185 0,68 -16,127 -48,176 -32,49 -81,87 -144,115 55,14 93,37 117,70 23,33 37,89 43,167l30 393 -196 0 -12 -175 -12 -166c-6,-85 -26,-140 -60,-166 -34,-25 -118,-38 -252,-38l-308 0 0 545 -189 0 0 -1273zm187 149l0 432 325 0c118,0 200,-17 249,-52 48,-35 73,-92 73,-173 0,-76 -23,-129 -69,-160 -46,-31 -130,-47 -253,-47l-325 0zm-1539 1124l0 -1273 534 0c195,0 344,53 448,159 104,106 156,259 156,459 0,207 -54,368 -161,483 -107,115 -257,172 -450,172l-527 0zm518 -1126l-327 0 0 970 327 0c140,0 246,-41 318,-124 72,-83 107,-205 107,-367 0,-155 -36,-274 -109,-356 -73,-82 -178,-124 -316,-124zm-1149 1126l-191 0 0 -510 -520 -763 239 0 375 602 372 -602 224 0 -499 751 0 522z"/>
 </g>
</svg>
